<?xml version="1.0"?>
<!-- Converted with SVG Converter - Version 0.9.5 (Compiled Mon May 30 09:08:51 2011) - Copyright (C) 2011 Nokia -->
<svg xmlns="http://www.w3.org/2000/svg" width="96" version="1.1" height="96" xmlns:xlink="http://www.w3.org/1999/xlink" baseProfile="tiny" id="svg2">
 <metadata id="metadata46"/>
 <defs id="defs4">
  <linearGradient id="hicg_overlay_grad" y1="5.1816001" x1="39.9995" y2="58.801899" gradientUnits="userSpaceOnUse" x2="39.9995">
   <stop offset="0" style="stop-color: rgb(255, 255, 255);" id="stop7"/>
   <stop offset="1" style="stop-color: rgb(0, 0, 0);" id="stop9"/>
  </linearGradient>
  <linearGradient id="linearGradient2878" y1="5.1816001" x1="39.9995" y2="58.801899" gradientUnits="userSpaceOnUse" x2="39.9995">
   <stop offset="0" style="stop-color: rgb(255, 255, 255);" id="stop7"/>
   <stop offset="1" style="stop-color: rgb(0, 0, 0);" id="stop9"/>
  </linearGradient>
  <linearGradient id="linearGradient2894" y1="5.1816001" x1="39.9995" y2="58.801899" gradientUnits="userSpaceOnUse" x2="39.9995">
   <stop offset="0" style="stop-color: rgb(255, 255, 255);" id="stop7"/>
   <stop offset="1" style="stop-color: rgb(0, 0, 0);" id="stop9"/>
  </linearGradient>
  <linearGradient id="linearGradient2921" y1="5.1816001" x1="39.9995" y2="58.801899" gradientUnits="userSpaceOnUse" x2="39.9995">
   <stop offset="0" style="stop-color: rgb(255, 255, 255);" id="stop7"/>
   <stop offset="1" style="stop-color: rgb(0, 0, 0);" id="stop9"/>
  </linearGradient>
  <defs id="defs2822"/>
 </defs>
 <g id="layer1" transform="matrix(1.7307692,0,0,1.7307692,-90.169902,-414.90461)"/>
 <g id="g2972">
  <g id="g20" transform="matrix(1.025641,0,0,1.025641,6.974359,6.974361)">
   <path style="fill:#008000" id="hicg_background" d="M 79,40 C 79,68.893 68.895,79 40,79 11.105,79 1,68.893 1,40 1,11.106 11.105,1 40,1 68.895,1 79,11.106 79,40 z"/>
   <path style="opacity:0.25;fill:#ffffff" id="hicg_highlight" d="M 39.999,1 C 11.105,1 1,11.106 1,40 1,68.893 11.105,79 39.999,79 68.896,79 79,68.893 79,40 79,11.106 68.896,1 39.999,1 z m 0,77.025 C 11.57,78.025 1.976,68.43 1.976,40 c 0,-28.429 9.595,-38.024 38.023,-38.024 28.43,0 38.024,9.596 38.024,38.024 0,28.43 -9.594,38.025 -38.024,38.025 z"/>
   <path style="opacity:0.4;fill:url(#linearGradient2921)" id="hicg_overlay" d="M 78.977,40 C 78.977,68.893 68.877,79 40,79 11.123,79 1.023,68.893 1.023,40 1.023,11.106 11.123,1 40,1 68.877,1 78.977,11.106 78.977,40 z"/>
  </g>
  <g id="g2860" transform="matrix(1.5463592,0,0,1.6605709,-78.398698,-395.0063)">
   <g id="g2872" transform="matrix(-0.334776,-0.183063,-0.157241,0.321469,159.552,202.865)">
    <g style="fill:#affc00;fill-rule:nonzero;stroke:none" id="g8" transform="matrix(1.25,0,0,1.25,122.795,234.409)">
     <path id="path10" d="M 2.3977,21.4996 C 1.88407,17.5937 0,14.6739 1.35346,10.436 2.55817,6.6608 5.54622,4.38253 6.53013,0 5.19189,4.67954 8.99401,6.37986 10.0511,10.2977 11.2927,14.9066 8.17877,18.5435 5.07769,21.1446 7.85431,17.8397 7.8467,12.5228 6.13949,8.4995 6.82355,13.801 5.32601,19.1654 2.15348,22.6283 c 0,0 0.24422,-1.1287 0.24422,-1.1287 z"/>
    </g>
    <path style="fill:#affc00;fill-rule:nonzero;stroke:none" id="path14" d="m 131.31779,262.33791 c 2.76652,-3.67774 3.65087,-8.16178 8.16046,-9.94037 4.01989,-1.5864 8.22639,0.0708 12.56464,-2.24682 -4.85875,2.14287 -3.23875,7.88485 -5.58575,12.19855 -2.76287,5.07195 -8.17656,4.33995 -12.74034,2.8042 4.87858,0.608 9.18834,-3.59915 11.11222,-8.74624 -3.768,4.9715 -9.30691,7.47161 -14.62326,6.53874 0,0 1.11203,-0.60806 1.11203,-0.60806 z"/>
    <g style="fill:#affc00;fill-rule:nonzero;stroke:none" id="g16" transform="matrix(1.25,0,0,1.25,130.766,265.601)">
     <path id="path18" d="M 0.924175,5.26938 C 3.3822,7.92224 4.39715,11.4025 8.11025,12.3705 11.4151,13.2349 14.6503,11.4983 18.2615,12.9142 14.2486,11.6891 15.1382,6.96411 12.9695,3.76264 10.416,0 6.16175,1.11747 2.64016,2.79053 6.47801,1.82192 10.2005,4.74454 12.0881,8.65045 8.7451,5.06881 4.16347,3.62707 0,4.89409 c 0,0 0.924175,0.37529 0.924175,0.37529 z"/>
    </g>
   </g>
   <g style="font-size:37.20800018px;font-style:normal;font-weight:normal;fill:#ffff00;fill-opacity:1;stroke:none;font-family:Bitstream Vera Sans" id="text2879" transform="matrix(0.941781,0,0,1.07456,-0.235442,6.03999)">
    <path style="font-variant:normal;font-stretch:normal;fill:#ffff00;font-family:Bauhaus" id="path2834" d="m 75.045861,249.33895 c -2e-6,-0.19832 0.0123,-0.42163 0.0369,-0.66994 0.0246,-0.24828 0.06188,-0.50869 0.111846,-0.78122 0.04996,-0.27327 0.124524,-0.55241 0.223693,-0.83743 0.09916,-0.285 0.210822,-0.57663 0.334971,-0.8749 0.272517,-0.69415 0.644392,-1.35747 1.115626,-1.98996 0.471227,-0.63245 1.041814,-1.23408 1.711761,-1.80487 0.669938,-0.57076 1.445103,-1.0049 2.325498,-1.30241 0.88038,-0.29749 1.866369,-0.44624 2.957969,-0.44625 l 3.49733,-0.0738 0,3.19983 -2.641166,0 c -0.17412,0.0492 -0.347851,0.0801 -0.521193,0.0925 -0.173363,0.0125 -0.359584,0.0434 -0.558664,0.0925 -0.198343,0.025 -0.396677,0.0623 -0.595,0.11185 -0.198343,0.0496 -0.396676,0.11186 -0.595001,0.18679 -0.446637,0.17337 -0.874529,0.39649 -1.283679,0.66937 -0.409164,0.27292 -0.799964,0.62019 -1.1724,1.04182 -0.371692,0.39668 -0.650646,0.88646 -0.836861,1.46934 -0.186227,0.58289 -0.279338,1.2464 -0.279332,1.99052 -6e-6,0.075 -6e-6,0.14952 0,0.22369 -6e-6,0.0742 -6e-6,0.13627 0,0.18623 -6e-6,0.0742 0.0062,0.14857 0.01873,0.22312 0.01249,0.0746 0.01873,0.14895 0.01874,0.22313 -5e-6,0.0742 0.0123,0.14856 0.0369,0.22312 0.0246,0.0746 0.0369,0.14895 0.0369,0.22313 0.02498,0.0992 0.04996,0.18604 0.07494,0.26059 0.02497,0.0746 0.04958,0.14895 0.07381,0.22313 0.124142,0.47161 0.322665,0.92449 0.595568,1.35862 0.272892,0.43414 0.607674,0.84955 1.004347,1.24621 0.397417,0.39667 0.881327,0.68811 1.451733,0.87433 0.570389,0.18622 1.240142,0.27934 2.009261,0.27933 0.04919,1e-5 0.09253,1e-5 0.130015,0 0.03746,1e-5 0.06831,1e-5 0.09254,0 0.04995,1e-5 0.09972,1e-5 0.149318,0 0.04957,1e-5 0.09934,1e-5 0.149317,0 l 2.641166,-0.0749 0,3.2373 -3.79483,0 c -1.141562,-0.025 -2.152532,-0.18622 -3.032912,-0.48372 -0.880395,-0.2975 -1.643069,-0.73164 -2.288026,-1.30242 -0.619985,-0.57077 -1.147045,-1.16615 -1.581179,-1.78613 -0.434141,-0.61998 -0.775358,-1.26494 -1.023651,-1.93489 -0.09917,-0.27251 -0.185845,-0.55147 -0.260029,-0.83686 -0.07419,-0.28538 -0.136261,-0.56433 -0.186221,-0.83686 -0.04996,-0.27327 -0.08725,-0.53387 -0.111846,-0.78179 -0.0246,-0.24791 -0.03691,-0.49601 -0.0369,-0.74432 l 0,-0.0738 z"/>
   </g>
   <g style="font-size:37.20800018px;font-style:normal;font-weight:normal;fill:#ffff00;fill-opacity:1;stroke:none;font-family:Bauhaus" id="text2826" transform="matrix(0.941781,0,0,1.06182,-0.396886,-5.35796)">
    <path id="path2831" d="m 88.896709,271.99899 0.03085,-22.36902 c -2e-6,-1.36485 0.217067,-2.59914 0.651207,-3.70286 0.434136,-1.10368 1.085343,-2.06469 1.953622,-2.88303 0.868272,-0.81904 1.798432,-1.43316 2.790484,-1.84234 0.992038,-0.40913 2.033855,-0.61371 3.125455,-0.61374 0.223304,3e-5 0.446618,0.0123 0.669943,0.0369 0.223303,0.0246 0.458729,0.0619 0.706279,0.11185 0.248283,0.0492 0.496389,0.11111 0.744318,0.18565 0.247904,0.0746 0.496013,0.14896 0.744323,0.22312 0.74411,0.27331 1.45096,0.64556 2.12054,1.11676 0.66955,0.47126 1.3147,1.04185 1.93545,1.71177 0.61997,0.66996 1.08495,1.43264 1.39496,2.28802 0.30997,0.85543 0.46497,1.80433 0.46499,2.84669 -2e-5,1.14082 -0.14877,2.15765 -0.44625,3.05051 -0.29752,0.8929 -0.73166,1.66182 -1.30242,2.30677 -0.57079,0.62075 -1.17242,1.148 -1.80487,1.58174 -0.63249,0.43377 -1.28369,0.7502 -1.95362,0.94928 -0.17337,0.0492 -0.35297,0.0924 -0.5388,0.12945 -0.185855,0.0371 -0.365831,0.0681 -0.539928,0.0931 -0.173365,0.025 -0.346906,0.0437 -0.520625,0.0562 -0.173743,0.0125 -0.347284,0.0188 -0.520626,0.0187 l -4.985966,-0.0749 0,-3.19983 3.237301,0 c 0.02421,0.025 0.04882,0.0437 0.07381,0.0562 0.02497,0.0125 0.04995,0.0188 0.07494,0.0187 -9e-6,1e-5 0.01229,1e-5 0.0369,0 0.02459,1e-5 0.04939,1e-5 0.07438,0 0.02497,1e-5 0.04976,1e-5 0.07438,0 0.02459,1e-5 0.04939,1e-5 0.07437,0 -1e-5,1e-5 0.01248,1e-5 0.03747,0 0.02497,1e-5 0.04957,1e-5 0.07381,0 0.744118,1e-5 1.38908,-0.0683 1.934886,-0.20496 0.545783,-0.13662 0.992408,-0.35369 1.339888,-0.65121 0.34745,-0.2725 0.64514,-0.57 0.89307,-0.8925 0.2479,-0.32246 0.43393,-0.65743 0.55809,-1.00491 0.0742,-0.19832 0.12981,-0.4029 0.16692,-0.61374 0.0371,-0.2108 0.0681,-0.41576 0.0931,-0.61487 0.025,-0.19831 0.0437,-0.3781 0.0562,-0.53936 0.0125,-0.16122 0.0187,-0.31603 0.0187,-0.46442 -2e-5,-0.12413 -0.006,-0.26058 -0.0187,-0.40934 -0.0125,-0.14874 -0.0312,-0.31016 -0.0562,-0.48429 -0.025,-0.17334 -0.0623,-0.34688 -0.11184,-0.52063 -0.0496,-0.17371 -0.099,-0.34725 -0.14819,-0.52062 -0.14914,-0.37243 -0.34766,-0.73219 -0.59556,-1.07929 -0.24793,-0.34707 -0.54562,-0.68185 -0.89307,-1.00435 -0.34748,-0.32246 -0.781615,-0.56432 -1.302418,-0.72558 -0.520825,-0.16122 -1.140806,-0.24184 -1.859943,-0.24186 -1.0916,2e-5 -1.984667,0.17356 -2.679205,0.52062 -0.694552,0.34711 -1.178084,0.86811 -1.450597,1.56301 -0.298263,0.69419 -0.515521,1.45686 -0.651775,2.28803 -0.136265,0.8312 -0.204395,1.71802 -0.20439,2.66047 l -0.03084,20.84405 -3.534801,0 0,0 8e-6,6e-5 -1e-5,0 z"/>
   </g>
  </g>
  <rect width="96" x="0" y="-9.5367432e-07" height="96" style="fill:none" id="rect2843"/>
 </g>
</svg>
